<svg width="88" height="22" viewBox="0 0 88 22" fill="none" xmlns="http://www.w3.org/2000/svg">
<path d="M10.9934 15.8939L12.4353 17.237C12.458 17.2581 12.4789 17.2811 12.4978 17.3058L13.502 18.6158C13.7843 18.9841 13.5194 19.5159 13.0554 19.5124L8.83953 19.4802C8.34967 19.4765 8.10251 18.8881 8.44277 18.5357L10.9934 15.8939ZM10.9934 15.8939L8.47237 13.2955L6.24294 11.2241M10.9934 15.8939L13.0586 13.6399L15.4303 11.2553M15.4303 11.2553L18.1393 13.6707C18.4965 13.9892 19.0626 13.7391 19.0676 13.2605L19.1138 8.88966C19.1191 8.38859 18.512 8.13555 18.1598 8.49205L15.4303 11.2553ZM15.4303 11.2553L13.0268 8.8099L10.7632 6.09341M6.24294 11.2241L3.40433 13.4562C3.03779 13.7444 2.50046 13.482 2.50236 13.0157L2.51904 8.93228C2.52105 8.44111 3.11127 8.19243 3.46417 8.53406L6.24294 11.2241ZM6.24294 11.2241L8.38745 8.87139L10.7632 6.09341M10.7632 6.09341L13.2178 3.62622C13.5601 3.28217 13.3297 2.69536 12.8448 2.6761L8.8639 2.51801C8.37368 2.49854 8.09921 3.07615 8.42393 3.44392L10.7632 6.09341Z" stroke="white" stroke-width="0.459734"/>
<path d="M32.1883 9.17837L30.9945 13.3292L30.8598 13.8863C30.8475 13.9394 30.8414 13.9843 30.8414 14.021C30.8414 14.0863 30.8618 14.1434 30.9026 14.1924C30.9353 14.2292 30.9761 14.2475 31.0251 14.2475C31.0781 14.2475 31.1475 14.2149 31.2332 14.1496C31.3924 14.0312 31.6046 13.7863 31.8699 13.4149L32.0781 13.5618C31.7965 13.9863 31.5067 14.3108 31.2087 14.5353C30.9108 14.7557 30.6353 14.8659 30.3822 14.8659C30.2067 14.8659 30.0741 14.821 29.9843 14.7312C29.8986 14.6455 29.8557 14.5189 29.8557 14.3516C29.8557 14.1516 29.9006 13.8884 29.9904 13.5618L30.119 13.1027C29.5843 13.8006 29.0925 14.2883 28.6435 14.5659C28.3211 14.7659 28.0048 14.8659 27.6946 14.8659C27.3967 14.8659 27.1395 14.7434 26.9232 14.4985C26.7069 14.2496 26.5987 13.9088 26.5987 13.4761C26.5987 12.8272 26.7926 12.1435 27.1803 11.4252C27.5722 10.7028 28.0681 10.1253 28.668 9.69263C29.1374 9.34979 29.5802 9.17837 29.9965 9.17837C30.2455 9.17837 30.4516 9.24367 30.6149 9.37428C30.7822 9.50489 30.9087 9.7212 30.9945 10.0232L31.2148 9.3253L32.1883 9.17837ZM30.0088 9.49672C29.7476 9.49672 29.47 9.61917 29.1762 9.86405C28.7599 10.211 28.3884 10.7252 28.0619 11.4068C27.7395 12.0884 27.5783 12.7047 27.5783 13.2557C27.5783 13.5333 27.6477 13.7537 27.7864 13.9169C27.9252 14.0761 28.0844 14.1557 28.264 14.1557C28.7088 14.1557 29.1925 13.8271 29.7149 13.17C30.4128 12.2966 30.7618 11.4007 30.7618 10.4824C30.7618 10.1355 30.6945 9.88446 30.5598 9.72937C30.4251 9.57427 30.2414 9.49672 30.0088 9.49672ZM35.3412 9.17837L34.5269 11.964C35.2902 10.8252 35.8738 10.0763 36.2779 9.71712C36.686 9.35795 37.0778 9.17837 37.4533 9.17837C37.6574 9.17837 37.8248 9.24571 37.9554 9.3804C38.09 9.51509 38.1574 9.69059 38.1574 9.90691C38.1574 10.1518 38.0982 10.4783 37.9798 10.8865L37.2329 13.4639C37.1472 13.7618 37.1044 13.9435 37.1044 14.0088C37.1044 14.0659 37.1207 14.1149 37.1534 14.1557C37.186 14.1924 37.2207 14.2108 37.2574 14.2108C37.3064 14.2108 37.3656 14.1843 37.435 14.1312C37.6513 13.9598 37.888 13.6986 38.1451 13.3476L38.3349 13.4639C37.9554 14.0067 37.5962 14.3945 37.2574 14.6271C37.0207 14.7863 36.8085 14.8659 36.6207 14.8659C36.4697 14.8659 36.3493 14.8189 36.2595 14.7251C36.1697 14.6353 36.1248 14.5128 36.1248 14.3577C36.1248 14.1618 36.1942 13.8251 36.333 13.3476L37.0432 10.8865C37.1329 10.5803 37.1778 10.3416 37.1778 10.1702C37.1778 10.0885 37.1513 10.0232 37.0983 9.97425C37.0452 9.92119 36.9799 9.89466 36.9023 9.89466C36.7881 9.89466 36.6513 9.94364 36.4922 10.0416C36.1901 10.2253 35.8759 10.5293 35.5493 10.9538C35.2228 11.3742 34.8779 11.9129 34.5147 12.5701C34.3229 12.917 34.1637 13.2965 34.0372 13.7088L33.7311 14.7189H32.8127L33.927 10.8865C34.0576 10.4253 34.1229 10.1477 34.1229 10.0538C34.1229 9.96405 34.0861 9.8865 34.0127 9.8212C33.9433 9.75181 33.8555 9.71712 33.7494 9.71712C33.7005 9.71712 33.6147 9.72528 33.4923 9.74161L33.2597 9.77834L33.2229 9.55794L35.3412 9.17837ZM42.1001 7.66007L41.6225 9.3253H42.5837L42.4796 9.711H41.5246L40.4716 13.3231C40.3573 13.7108 40.3001 13.9618 40.3001 14.0761C40.3001 14.1455 40.3165 14.1985 40.3491 14.2353C40.3818 14.272 40.4206 14.2904 40.4654 14.2904C40.5675 14.2904 40.7022 14.219 40.8695 14.0761C40.9675 13.9945 41.1858 13.7435 41.5246 13.3231L41.7266 13.4761C41.3511 14.023 40.996 14.4087 40.6614 14.6332C40.4328 14.7883 40.2022 14.8659 39.9696 14.8659C39.79 14.8659 39.643 14.8108 39.5288 14.7006C39.4145 14.5863 39.3573 14.4414 39.3573 14.2659C39.3573 14.0455 39.4226 13.7088 39.5532 13.2557L40.5756 9.711H39.6512L39.7124 9.47223C40.1614 9.34979 40.5348 9.16817 40.8328 8.92736C41.1307 8.68247 41.4634 8.26005 41.8307 7.66007H42.1001ZM46.0121 6.01321L44.2918 11.9578C45.0346 10.8395 45.6142 10.0967 46.0305 9.72937C46.4468 9.36204 46.8447 9.17837 47.2243 9.17837C47.4202 9.17837 47.5835 9.24571 47.7141 9.3804C47.8447 9.51509 47.91 9.69467 47.91 9.91915C47.91 10.1885 47.8529 10.515 47.7386 10.8987L46.9917 13.4639C46.8978 13.7741 46.8509 13.9455 46.8509 13.9782C46.8509 14.0353 46.8672 14.0822 46.8998 14.119C46.9366 14.1557 46.9774 14.1741 47.0223 14.1741C47.0753 14.1741 47.1366 14.1475 47.206 14.0945C47.4386 13.9149 47.6692 13.6659 47.8978 13.3476L48.0875 13.4639C47.9488 13.6802 47.7549 13.919 47.5059 14.1802C47.2611 14.4373 47.0488 14.6169 46.8692 14.7189C46.6937 14.8169 46.5366 14.8659 46.3978 14.8659C46.2468 14.8659 46.1223 14.8169 46.0244 14.7189C45.9305 14.6251 45.8836 14.5026 45.8836 14.3516C45.8836 14.172 45.955 13.8373 46.0978 13.3476L46.8019 10.8987C46.8917 10.5926 46.9366 10.3518 46.9366 10.1763C46.9366 10.0947 46.91 10.0294 46.857 9.98037C46.808 9.9314 46.7427 9.90691 46.6611 9.90691C46.5427 9.90691 46.408 9.9518 46.257 10.0416C45.9795 10.213 45.6591 10.5314 45.2958 10.9967C45.1979 11.1232 44.8714 11.6334 44.3163 12.5272C44.1449 12.8129 44.0041 13.1251 43.8939 13.4639L43.502 14.7189H42.5837L44.5979 7.71517L44.8122 6.95602C44.8122 6.84991 44.7673 6.75603 44.6775 6.6744C44.5918 6.59277 44.4857 6.55196 44.3591 6.55196C44.2857 6.55196 44.1734 6.5642 44.0224 6.58869L43.8939 6.60706V6.3683L46.0121 6.01321ZM51.4058 6.74787C51.5772 6.74787 51.7221 6.80705 51.8404 6.92541C51.9588 7.04377 52.018 7.18867 52.018 7.36009C52.018 7.52743 51.9568 7.67232 51.8343 7.79476C51.716 7.91312 51.5731 7.9723 51.4058 7.9723C51.2384 7.9723 51.0935 7.91312 50.9711 7.79476C50.8527 7.67232 50.7935 7.52743 50.7935 7.36009C50.7935 7.18867 50.8527 7.04377 50.9711 6.92541C51.0894 6.80705 51.2343 6.74787 51.4058 6.74787ZM51.4853 9.17837L50.2732 13.47C50.1915 13.7598 50.1507 13.9333 50.1507 13.9904C50.1507 14.0557 50.1691 14.1088 50.2058 14.1496C50.2466 14.1904 50.2936 14.2108 50.3466 14.2108C50.4078 14.2108 50.4813 14.1781 50.567 14.1128C50.7997 13.9292 51.0344 13.668 51.2711 13.3292L51.4853 13.47C51.2078 13.8945 50.8813 14.2516 50.5058 14.5414C50.2283 14.7577 49.963 14.8659 49.7099 14.8659C49.5426 14.8659 49.4059 14.8169 49.2997 14.7189C49.1936 14.6169 49.1406 14.4904 49.1406 14.3394C49.1406 14.1883 49.1916 13.9373 49.2936 13.5863L50.0895 10.8436C50.2201 10.3946 50.2854 10.113 50.2854 9.99874C50.2854 9.90895 50.2528 9.83548 50.1875 9.77834C50.1262 9.7212 50.0405 9.69263 49.9303 9.69263C49.8405 9.69263 49.6548 9.71508 49.3732 9.75998V9.52121L51.4853 9.17837ZM57.9748 9.17837L56.781 13.3292L56.6463 13.8863C56.6341 13.9394 56.628 13.9843 56.628 14.021C56.628 14.0863 56.6484 14.1434 56.6892 14.1924C56.7218 14.2292 56.7627 14.2475 56.8116 14.2475C56.8647 14.2475 56.9341 14.2149 57.0198 14.1496C57.179 14.0312 57.3912 13.7863 57.6565 13.4149L57.8647 13.5618C57.583 13.9863 57.2932 14.3108 56.9953 14.5353C56.6974 14.7557 56.4219 14.8659 56.1688 14.8659C55.9933 14.8659 55.8607 14.821 55.7709 14.7312C55.6852 14.6455 55.6423 14.5189 55.6423 14.3516C55.6423 14.1516 55.6872 13.8884 55.777 13.5618L55.9056 13.1027C55.3709 13.8006 54.8791 14.2883 54.4301 14.5659C54.1077 14.7659 53.7914 14.8659 53.4812 14.8659C53.1832 14.8659 52.9261 14.7434 52.7098 14.4985C52.4935 14.2496 52.3853 13.9088 52.3853 13.4761C52.3853 12.8272 52.5792 12.1435 52.9669 11.4252C53.3587 10.7028 53.8546 10.1253 54.4546 9.69263C54.924 9.34979 55.3668 9.17837 55.7831 9.17837C56.0321 9.17837 56.2382 9.24367 56.4015 9.37428C56.5688 9.50489 56.6953 9.7212 56.781 10.0232L57.0014 9.3253L57.9748 9.17837ZM55.7954 9.49672C55.5341 9.49672 55.2566 9.61917 54.9627 9.86405C54.5464 10.211 54.175 10.7252 53.8485 11.4068C53.5261 12.0884 53.3649 12.7047 53.3649 13.2557C53.3649 13.5333 53.4342 13.7537 53.573 13.9169C53.7118 14.0761 53.871 14.1557 54.0505 14.1557C54.4954 14.1557 54.9791 13.8271 55.5015 13.17C56.1994 12.2966 56.5484 11.4007 56.5484 10.4824C56.5484 10.1355 56.481 9.88446 56.3464 9.72937C56.2117 9.57427 56.028 9.49672 55.7954 9.49672ZM62.9093 9.17837L62.5359 11.0579H62.3093C62.2889 10.511 62.1726 10.113 61.9604 9.86405C61.7481 9.61509 61.4849 9.4906 61.1706 9.4906C60.9176 9.4906 60.7155 9.55999 60.5645 9.69875C60.4176 9.83752 60.3441 10.0049 60.3441 10.2008C60.3441 10.3355 60.3727 10.464 60.4298 10.5865C60.4911 10.7089 60.6217 10.8803 60.8217 11.1007C61.3522 11.6803 61.6951 12.117 61.8502 12.4109C62.0053 12.7047 62.0828 12.9823 62.0828 13.2435C62.0828 13.668 61.9053 14.0455 61.5502 14.3761C61.1992 14.7026 60.7543 14.8659 60.2156 14.8659C59.9217 14.8659 59.5829 14.7965 59.1993 14.6577C59.0646 14.6087 58.9605 14.5842 58.8871 14.5842C58.7034 14.5842 58.5646 14.6781 58.4707 14.8659H58.2442L58.6177 12.8823H58.8442C58.8687 13.5027 58.9973 13.9414 59.2299 14.1985C59.4625 14.4557 59.7809 14.5842 60.185 14.5842C60.4951 14.5842 60.74 14.4985 60.9196 14.3271C61.1033 14.1516 61.1951 13.9373 61.1951 13.6843C61.1951 13.521 61.1625 13.37 61.0972 13.2312C60.9829 12.9864 60.7421 12.6476 60.3747 12.215C60.0115 11.7823 59.7768 11.4579 59.6707 11.2415C59.5687 11.0252 59.5176 10.8089 59.5176 10.5926C59.5176 10.1967 59.6605 9.86201 59.9462 9.58856C60.236 9.3151 60.6074 9.17837 61.0604 9.17837C61.191 9.17837 61.3094 9.18857 61.4155 9.20898C61.4726 9.22123 61.6053 9.26816 61.8134 9.34979C62.0257 9.42734 62.1665 9.46611 62.2359 9.46611C62.4114 9.46611 62.5583 9.3702 62.6767 9.17837H62.9093ZM70.109 6.01321L68.0152 13.2986C67.9132 13.6618 67.8621 13.8843 67.8621 13.9659C67.8621 14.0271 67.8805 14.0781 67.9172 14.119C67.9581 14.1598 68.007 14.1802 68.0642 14.1802C68.1417 14.1802 68.2254 14.1455 68.3152 14.0761C68.5274 13.9088 68.7499 13.6496 68.9825 13.2986L69.1662 13.4884C68.7784 14.0353 68.4213 14.4169 68.0948 14.6332C67.854 14.7883 67.6254 14.8659 67.4091 14.8659C67.254 14.8659 67.1234 14.8128 67.0173 14.7067C66.9153 14.6006 66.8642 14.4781 66.8642 14.3394C66.8642 14.1924 66.9295 13.8904 67.0601 13.4333L68.7193 7.69068C68.8539 7.22132 68.9213 6.95194 68.9213 6.88256C68.9213 6.7846 68.8825 6.70501 68.805 6.64379C68.7274 6.57849 68.607 6.54584 68.4438 6.54584C68.3499 6.54584 68.207 6.56012 68.0152 6.58869V6.36217L70.109 6.01321ZM75.7536 9.17837L74.5598 13.3292L74.4251 13.8863C74.4129 13.9394 74.4068 13.9843 74.4068 14.021C74.4068 14.0863 74.4272 14.1434 74.468 14.1924C74.5006 14.2292 74.5414 14.2475 74.5904 14.2475C74.6435 14.2475 74.7129 14.2149 74.7986 14.1496C74.9577 14.0312 75.17 13.7863 75.4353 13.4149L75.6434 13.5618C75.3618 13.9863 75.072 14.3108 74.7741 14.5353C74.4761 14.7557 74.2006 14.8659 73.9476 14.8659C73.7721 14.8659 73.6394 14.821 73.5496 14.7312C73.4639 14.6455 73.4211 14.5189 73.4211 14.3516C73.4211 14.1516 73.466 13.8884 73.5558 13.5618L73.6843 13.1027C73.1497 13.8006 72.6579 14.2883 72.2089 14.5659C71.8865 14.7659 71.5701 14.8659 71.26 14.8659C70.962 14.8659 70.7049 14.7434 70.4886 14.4985C70.2722 14.2496 70.1641 13.9088 70.1641 13.4761C70.1641 12.8272 70.358 12.1435 70.7457 11.4252C71.1375 10.7028 71.6334 10.1253 72.2334 9.69263C72.7027 9.34979 73.1456 9.17837 73.5619 9.17837C73.8109 9.17837 74.017 9.24367 74.1802 9.37428C74.3476 9.50489 74.4741 9.7212 74.5598 10.0232L74.7802 9.3253L75.7536 9.17837ZM73.5741 9.49672C73.3129 9.49672 73.0354 9.61917 72.7415 9.86405C72.3252 10.211 71.9538 10.7252 71.6273 11.4068C71.3049 12.0884 71.1436 12.7047 71.1436 13.2557C71.1436 13.5333 71.213 13.7537 71.3518 13.9169C71.4906 14.0761 71.6497 14.1557 71.8293 14.1557C72.2742 14.1557 72.7578 13.8271 73.2803 13.17C73.9782 12.2966 74.3272 11.4007 74.3272 10.4824C74.3272 10.1355 74.2598 9.88446 74.1251 9.72937C73.9904 9.57427 73.8068 9.49672 73.5741 9.49672ZM79.7575 6.01321L78.5515 10.2436C78.9433 9.83548 79.2841 9.5559 79.5739 9.40489C79.8677 9.25388 80.1738 9.17837 80.4922 9.17837C80.9411 9.17837 81.3085 9.32734 81.5942 9.62529C81.8799 9.92323 82.0227 10.3273 82.0227 10.8375C82.0227 11.4946 81.835 12.1497 81.4595 12.8027C81.084 13.4516 80.6126 13.9577 80.0453 14.321C79.4779 14.6842 78.9188 14.8659 78.3678 14.8659C77.7515 14.8659 77.1189 14.6353 76.4699 14.1741L78.3311 7.76415C78.4739 7.27029 78.5453 6.98051 78.5453 6.8948C78.5453 6.78868 78.5127 6.7091 78.4474 6.65604C78.3535 6.58257 78.2147 6.54584 78.0311 6.54584C77.9454 6.54584 77.8148 6.56012 77.6393 6.58869V6.35605L79.7575 6.01321ZM77.3882 14.2414C77.7964 14.4659 78.1556 14.5781 78.4657 14.5781C78.8249 14.5781 79.1963 14.4475 79.58 14.1863C79.9677 13.921 80.3024 13.4761 80.584 12.8517C80.8697 12.2272 81.0126 11.5966 81.0126 10.9599C81.0126 10.5844 80.9187 10.2906 80.731 10.0783C80.5473 9.86609 80.3289 9.75998 80.0759 9.75998C79.6963 9.75998 79.3249 9.91303 78.9616 10.2191C78.5984 10.5212 78.3392 10.9436 78.1841 11.4864L77.3882 14.2414ZM86.9572 9.17837L86.5837 11.0579H86.3572C86.3368 10.511 86.2205 10.113 86.0083 9.86405C85.796 9.61509 85.5328 9.4906 85.2185 9.4906C84.9655 9.4906 84.7634 9.55999 84.6124 9.69875C84.4655 9.83752 84.392 10.0049 84.392 10.2008C84.392 10.3355 84.4206 10.464 84.4777 10.5865C84.5389 10.7089 84.6695 10.8803 84.8695 11.1007C85.4001 11.6803 85.743 12.117 85.8981 12.4109C86.0532 12.7047 86.1307 12.9823 86.1307 13.2435C86.1307 13.668 85.9532 14.0455 85.5981 14.3761C85.2471 14.7026 84.8022 14.8659 84.2634 14.8659C83.9696 14.8659 83.6308 14.7965 83.2472 14.6577C83.1125 14.6087 83.0084 14.5842 82.9349 14.5842C82.7513 14.5842 82.6125 14.6781 82.5186 14.8659H82.2921L82.6656 12.8823H82.8921C82.9166 13.5027 83.0451 13.9414 83.2778 14.1985C83.5104 14.4557 83.8288 14.5842 84.2328 14.5842C84.543 14.5842 84.7879 14.4985 84.9675 14.3271C85.1512 14.1516 85.243 13.9373 85.243 13.6843C85.243 13.521 85.2103 13.37 85.145 13.2312C85.0308 12.9864 84.7899 12.6476 84.4226 12.215C84.0594 11.7823 83.8247 11.4579 83.7186 11.2415C83.6165 11.0252 83.5655 10.8089 83.5655 10.5926C83.5655 10.1967 83.7084 9.86201 83.9941 9.58856C84.2838 9.3151 84.6553 9.17837 85.1083 9.17837C85.2389 9.17837 85.3573 9.18857 85.4634 9.20898C85.5205 9.22123 85.6532 9.26816 85.8613 9.34979C86.0736 9.42734 86.2144 9.46611 86.2838 9.46611C86.4593 9.46611 86.6062 9.3702 86.7246 9.17837H86.9572Z" fill="white"/>
</svg>
