<svg width="16" height="12" viewBox="0 0 16 12" fill="none" xmlns="http://www.w3.org/2000/svg">
<path id="Vector" d="M15.0613 7.13335H13.4759V8.7187H14.0308C14.1621 8.7187 14.2686 8.80788 14.2686 8.91687V9.31321C14.2686 9.4222 14.1621 9.51138 14.0308 9.51138H1.82358C1.69229 9.51138 1.58578 9.4222 1.58578 9.31321V8.91687C1.58578 8.80788 1.69229 8.7187 1.82358 8.7187H2.37845V7.13335H0.793103C0.354654 7.13335 0.000427246 7.48758 0.000427246 7.92602V10.3041C0.000427246 10.7425 0.354654 11.0967 0.793103 11.0967H15.0613C15.4997 11.0967 15.8539 10.7425 15.8539 10.3041V7.92602C15.8539 7.48758 15.4997 7.13335 15.0613 7.13335ZM12.6832 8.7187V0.799375C12.6832 0.355972 12.3241 -0.000732422 11.8831 -0.000732422H3.97371C3.53031 -0.000732422 3.17113 0.358449 3.17113 0.799375V8.7187H12.6832ZM5.23209 4.21036L5.86375 3.58365C5.96779 3.47961 6.13623 3.47961 6.24027 3.58612L7.26332 4.6166L9.62153 2.27821C9.72556 2.17417 9.89401 2.17417 9.99805 2.28069L10.6248 2.91235C10.7288 3.01639 10.7288 3.18483 10.6223 3.28887L7.44415 6.43976C7.34011 6.5438 7.17166 6.5438 7.06763 6.43728L5.23209 4.58688C5.12557 4.48284 5.12805 4.3144 5.23209 4.21036Z" fill="#F56E0E"/>
</svg>
